<?xml version="1.0" standalone="no"?>
<!DOCTYPE svg PUBLIC "-//W3C//DTD SVG 20010904//EN"
 "http://www.w3.org/TR/2001/REC-SVG-20010904/DTD/svg10.dtd">
<svg version="1.0" xmlns="http://www.w3.org/2000/svg"
 width="700.000000pt" height="700.000000pt" viewBox="0 0 700.000000 700.000000"
 preserveAspectRatio="xMidYMid meet">
<metadata>
Created by potrace 1.14, written by Peter Selinger 2001-2017
</metadata>
<g transform="translate(0.000000,700.000000) scale(0.100000,-0.100000)"
fill="#000000" stroke="none">
<path d="M3140 5398 c-278 -82 -788 -232 -1135 -334 -389 -114 -655 -197 -694
-216 -81 -41 -176 -134 -218 -214 -109 -206 -76 -454 83 -620 l53 -55 -53 -54
c-197 -201 -196 -535 5 -735 l55 -56 -57 -57 c-162 -163 -196 -413 -86 -621
43 -82 136 -173 217 -213 63 -32 2307 -693 2350 -693 31 0 2303 651 2327 667
32 21 37 46 34 153 -3 104 -16 133 -63 132 -12 0 -534 -146 -1160 -325 l-1136
-325 -1107 323 c-1209 352 -1153 333 -1202 425 -42 80 -27 198 35 263 57 60
63 61 228 12 566 -166 970 -284 1449 -425 356 -105 566 -162 595 -162 61 1
2318 656 2343 681 17 16 19 36 18 182 l0 164 -26 23 c-19 16 -33 20 -53 15
-15 -3 -534 -151 -1154 -328 l-1127 -322 -1088 318 c-598 174 -1100 322 -1114
327 -43 17 -86 60 -109 109 -18 38 -21 60 -18 114 4 78 35 133 96 174 l37 24
455 -133 c250 -74 734 -216 1075 -316 404 -119 636 -183 665 -183 27 0 160 34
325 82 154 46 667 195 1140 332 576 168 866 256 879 269 18 17 19 33 18 176
-1 147 -2 158 -23 180 -12 13 -28 24 -35 24 -7 0 -519 -144 -1136 -321 -618
-176 -1136 -323 -1153 -325 -46 -7 -2204 625 -2254 660 -57 39 -93 112 -92
186 0 36 7 75 17 96 22 46 77 102 107 109 15 4 270 -66 693 -190 368 -108 761
-223 874 -256 113 -33 297 -87 410 -121 167 -49 212 -59 250 -55 60 8 2309
662 2323 676 6 6 14 48 18 94 8 91 -4 135 -44 156 -23 11 -2313 662 -2325 660
-4 -1 -234 -68 -512 -151z"/>
</g>
</svg>
